# xmcd
#
# Track frame offsets:
#	150
#	14524
#	25728
#	40786
#	54541
#	69407
#	83975
#	98657
#	111540
#	124427
#	134032
#	149084
#	161795
#	177721
#	191727
#	206091
#	222663
#	238064
#	258284
#	270291
#	284859
#	299472
#	314310
#
# Disc length: 4366 seconds
#
# Revision: 0
# Processed by: cddbd v1.5.1PL2 Copyright (c) Steve Scherf et al.
# Submitted via: audiograbber 1.83.01
#
DISCID=80110c17
DTITLE=Various Artist - Sertanejo Raizes By Miro 1
DYEAR=2006
DGENRE=Country
TTITLE0=Chrystian and Ralf - Amargurado
TTITLE1=Gilberto E Gilmar - Assino Com X
TTITLE2=Trio Parada Dura - Blusa Vermelha
TTITLE3=Peao Carreiro and Ze Paulo - Parede E Meia
TTITLE4=Milionario and Jose Rico - Duas Camisas
TTITLE5=Trio Parada Dura - Barco de Papel
TTITLE6=Joaquim and Manoel - Boate azul
TTITLE7=Duduca and Dalvan - Dama de Vermelho
TTITLE8=Joao Mineiro and Marciano - Esta Noite Como Lembranca
TTITLE9=Milionario and Jose Rico - Estrada da Vida
TTITLE10=Chrystian and Ralf - O Ipe e o Prisioneiro
TTITLE11=Duo Glacial - Camisa Branca
TTITLE12=Duduca and Dalvan - Mulher Maravilha
TTITLE13=Chrystian and Ralf - Noite De Tortura
TTITLE14=Milionario and Jose Rico - Paixao de Um Homem
TTITLE15=Peao Carreiro and Ze Paulo - Porta do Mundo
TTITLE16=Daniel (part_ esp_ Teodoro e Sampaio) - Prato Do Dia
TTITLE17=Joaquim and Manoe - Som de Cristal
TTITLE18=Juliano and Jardel - Sorriso Mudo
TTITLE19=Chico Rey and Parana - Telefone mais
TTITLE20=Trio Parada Dura - Telefone Mudo
TTITLE21=Chitaozinho and Xororo - Tenho Ciume de Tudo
TTITLE22=Teodoro and Sampaio - Vestido de Seda
EXTD=
EXTT0=
EXTT1=
EXTT2=
EXTT3=
EXTT4=
EXTT5=
EXTT6=
EXTT7=
EXTT8=
EXTT9=
EXTT10=
EXTT11=
EXTT12=
EXTT13=
EXTT14=
EXTT15=
EXTT16=
EXTT17=
EXTT18=
EXTT19=
EXTT20=
EXTT21=
EXTT22=
PLAYORDER=
